# xmcd
# 
# Track frame offsets:
#     150
#     33267
#     63622
#     93170
#     122310
#     148625
# 
# Disc length: 2444
# 
# Revision: 2
# Processed by: cddbd v1.5.2PL0 Copyright (c) Steve Scherf et al.
# Submitted via: BonkEnc v1.0.15
# 
DISCID=47098a06
DTITLE=Lee Morgan - Lee Morgan Vol.2
DYEAR=1956
DGENRE=Jazz
TTITLE0=Whisper Not
TTITLE1=Latin Hangover
TTITLE2=His Sister
TTITLE3=Slightly Hep
TTITLE4=Where Am I
TTITLE5=D's Fink
EXTD=YEAR: 1956
EXTT0=
EXTT1=
EXTT2=
EXTT3=
EXTT4=
EXTT5=
PLAYORDER=
